<?xml version="1.0" encoding="UTF-8"?>
<svg width="1200pt" height="1200pt" version="1.1" viewBox="0 0 1200 1200" xmlns="http://www.w3.org/2000/svg">
 <g>
  <path d="m734.04 173.15c-42.277-20.258-78.266-50.641-104.07-87.875l-10.441-15.059c-4.4375-6.3984-11.734-10.215-19.523-10.215s-15.086 3.8164-19.512 10.211l-10.441 15.059c-25.812 37.234-61.812 67.621-104.07 87.875-169.78 81.352-297.8 300.02-297.8 508.62 0 67.043 11.328 130.16 33.684 187.62 21.504 55.273 52.656 104.04 92.594 144.98 79.031 81.008 187.55 125.62 305.55 125.62s226.52-44.617 305.55-125.63c39.938-40.934 71.09-89.711 92.594-144.98 22.355-57.457 33.684-120.57 33.684-187.62 0-208.62-128.03-427.27-297.79-508.62zm137.52 808.05c-70.02 71.773-166.46 111.3-271.56 111.3-105.1 0-201.54-39.527-271.56-111.3-73.777-75.625-112.78-179.17-112.78-299.44 0-93.504 28.273-192.82 79.598-279.65 50.27-85.031 118.18-151.14 191.23-186.14 44.941-21.527 83.902-52.906 113.51-91.246 29.605 38.34 68.566 69.707 113.51 91.246 73.055 35.004 140.96 101.11 191.23 186.14 51.336 86.832 79.598 186.16 79.598 279.65 0 120.27-38.988 223.81-112.78 299.44z"/>
  <path d="m894.07 530.16c0.35938-1.8828 1.4766-4.6914 2.6406-7.6562 0.875-2.1953 1.7266-4.4023 2.5078-6.6367 10.883-31.414-0.85156-60.098-29.902-73.078-8.9414-3.9961-10.031-5.8789-8.9883-15.551 1.6914-15.672-0.22656-32.93-5.3867-48.574-7.2617-21.984-26.543-36.18-49.129-36.18-4.6445 0-9.3359 0.61328-13.945 1.8125-1.957 0.51562-3.6719 0.76953-5.0898 0.76953-1.8008 0-4.8008 0-10.883-9.9492-12.648-20.676-30.66-34.801-52.094-40.836-6.9961-1.9688-14.16-2.9648-21.312-2.9648-35.543 0-66.91 24.301-78.059 60.469-8.543 27.695-2.9023 52.836 1.6328 73.043 6.0352 26.902 3.8633 43.43-7.5234 57.047-5.8906 7.043-13.008 8.5312-17.93 8.5312h-0.30078-0.58984-0.30078c-4.9219 0-12.035-1.4766-17.93-8.5312-11.387-13.609-13.57-30.145-7.5234-57.047 4.5352-20.195 10.176-45.336 1.6328-73.043-11.148-36.168-42.527-60.469-78.059-60.469-7.1523 0-14.316 0.99609-21.312 2.9648-21.434 6.0234-39.445 20.148-52.094 40.824-6.0859 9.9492-9.0977 9.9492-10.883 9.9492-1.4141 0-3.1211-0.26563-5.0898-0.76953-4.6094-1.1992-9.3008-1.8125-13.945-1.8125-22.586 0-41.867 14.207-49.129 36.18-5.1719 15.637-7.0781 32.879-5.3867 48.562 1.043 9.6719-0.046875 11.555-8.9883 15.551-29.051 12.984-40.789 41.664-29.902 73.078 0.76953 2.2305 1.6328 4.4414 2.5078 6.6484 1.1758 2.9648 2.2812 5.7617 2.6406 7.6445 0.20312 1.0781 0.37109 1.9805 0.49219 2.7227-20.566 13.176-35.051 30.66-43.078 52.031-1.0078 2.6758-1.5117 5.4961-1.5117 8.3516v23.375c0 5.3164 1.7773 10.477 5.0625 14.652 0.28906 0.35938 0.58984 0.71875 0.88672 1.0781 12.18 26.484 29.664 42.434 52.152 47.605-15.59 8.7852-30.18 23.699-38.93 49.668-8.8789 26.375 2.2695 64.332 25.402 86.41 15.672 14.965 34.285 19.031 49.246 22.297l1.0078 0.21484c1.332 0.28906 2.3633 0.60156 3.1445 0.86328-0.21484 0.75781-0.53906 1.7266-1.0312 2.9023-1.6797 4.0312-4.0312 8.3164-6.5391 12.863l-1.332 2.4258c-15.637 28.609-10.211 57.539 14.508 77.398 5.6523 4.5352 11.723 8.5664 18.059 11.977 10.078 5.4258 10.223 8.3867 9.5898 14.578-1.8828 18.504 5.5312 35.734 10.129 44.352 11.977 22.488 37.465 37.031 64.945 37.031 4.9336 0 9.8516-0.46875 14.629-1.3906 30.805-5.9766 57.66-33.852 62.473-64.824 1.4531-9.3594 2.0742-18.48 2.6758-27.301 0.53906-7.9453 1.0547-15.445 2.1367-22.609 0.69531-4.6094 1.8945-6.6719 2.1602-6.9492 0 0 0.22656-0.12109 0.80469-0.22656 0.20313-0.035156 0.32422-0.046874 0.33594-0.058593 0.28906 0.13281 2.1602 1.1055 5.1367 5.3047 3.6602 5.1719 6.8984 11.426 10.32 18.047 1.5234 2.9531 3.0586 5.9023 4.6328 8.8086 0.83984 1.5352 1.6914 3.3945 2.5195 5.1953 0.45703 0.99609 0.89844 1.9453 1.3203 2.8203 3.7578 7.8359 11.484 12.996 20.16 13.453 0.875 0.046875 1.7266 0.046875 2.5938 0 0.86328 0.046875 1.7266 0.046875 2.5781 0 8.6758-0.45703 16.402-5.6055 20.16-13.441 0.43359-0.89844 0.875-1.8594 1.3438-2.8789 0.82812-1.7891 1.6797-3.6367 2.5078-5.1602 1.5859-2.9023 3.1094-5.8555 4.6328-8.8086 3.4219-6.625 6.6602-12.875 10.32-18.047 3.1562-4.4414 5.0508-5.2695 5.0391-5.293 0.035156 0 0.16797 0 0.43359 0.058593 0.49219 0.097657 0.68359 0.16797 0.71875 0.17969 0.38281 0.42188 1.5586 2.4844 2.2305 7.0078 1.0781 7.1523 1.5859 14.664 2.1367 22.609 0.60156 8.8203 1.2227 17.941 2.6758 27.301 4.8125 30.973 31.668 58.848 62.473 64.824 4.7773 0.92578 9.6953 1.3906 14.629 1.3906 27.48 0 52.969-14.531 64.945-37.031 4.5859-8.6172 12-25.848 10.117-44.352-0.63672-6.1797-0.49219-9.1445 9.5898-14.566 6.3359-3.4062 12.406-7.4414 18.059-11.988 24.719-19.859 30.145-48.793 14.496-77.398l-1.332-2.4102c-2.4961-4.5469-4.8594-8.832-6.5391-12.863-0.49219-1.1758-0.81641-2.1367-1.0312-2.8906 0.78125-0.27734 1.8125-0.57422 3.1445-0.86328l1.0078-0.21484c14.965-3.2656 33.574-7.332 49.246-22.297 23.137-22.078 34.285-60.035 25.402-86.426-5.4258-16.105-15.168-36.383-39.098-49.633 22.559-5.1367 40.105-21.098 52.309-47.641 0.30078-0.35938 0.60156-0.71875 0.88672-1.0781 3.2773-4.1758 5.0508-9.3359 5.0508-14.652v-23.375c0-2.8555-0.51562-5.6758-1.5117-8.3516-8.0273-21.359-22.512-38.844-43.078-52.031 0.10938-0.74219 0.26563-1.6445 0.46875-2.7227zm-3.3945 78.91c-0.28906 0.55078-0.5625 1.1406-0.82812 1.7383-9.457 21.707-18.395 23.52-26.734 23.52-5.0742 0-11.207-1.0664-18.215-3.1562-7.7656-2.3281-15.949-3.2891-23.473-2.7461-20.605 1.4883-35.496 14.566-38.844 34.117-3.6484 21.203 6.2031 39.395 25.078 46.332 9.3594 3.4453 18.695 4.7891 26.941 5.9648l0.35938 0.046875c22.488 3.2383 32.711 11.062 39.059 29.902 2.4492 7.2617-2.4844 26.688-13.188 36.898-5.7344 5.4844-13.836 7.4648-26.578 10.246l-1.0312 0.22656c-21.613 4.7266-31.559 16.105-36.098 24.816-4.5234 8.6875-8.1484 23.305 0.30078 43.598 2.6641 6.4062 5.7734 12.047 8.7734 17.508l1.2617 2.3047c5.3164 9.7188 3.1797 12.973-2.5664 17.594-3.3945 2.7227-7.043 5.1484-10.836 7.1875-25.523 13.738-37.066 34.332-34.32 61.211 0.33594 3.3242-1.0195 10.129-4.8008 17.219-3.7695 7.0938-13.031 11.855-23.016 11.855-1.8945 0-3.7812-0.17969-5.5781-0.52734-11.137-2.1602-22.859-14.316-24.59-25.488-1.1406-7.3438-1.668-15.07-2.2305-23.258-0.58984-8.5312-1.1875-17.363-2.543-26.41-3.8047-25.367-18.672-42.406-40.789-46.754-3.1914-0.625-6.4062-0.94922-9.5625-0.94922-11.797 0-28.957 4.3906-43.789 25.332-0.97266 1.3789-1.9062 2.7617-2.8086 4.1406-0.88672-1.3789-1.8242-2.7617-2.7969-4.1406-14.832-20.941-32.004-25.332-43.789-25.332-3.1562 0-6.3711 0.3125-9.5625 0.94922-22.117 4.332-36.984 21.371-40.789 46.738-1.3555 9.0469-1.957 17.879-2.543 26.41-0.5625 8.1836-1.0938 15.91-2.2305 23.258-1.7383 11.184-13.453 23.328-24.59 25.488-1.8008 0.34766-3.6836 0.52734-5.5781 0.52734-9.9961 0-19.246-4.7656-23.016-11.844-3.7812-7.1055-5.1367-13.906-4.8008-17.219 2.7461-26.879-8.8086-47.473-34.32-61.211-3.793-2.0391-7.4414-4.4648-10.836-7.1875-5.7617-4.6328-7.8828-7.8711-2.5781-17.594l1.2734-2.3047c3-5.4609 6.1094-11.102 8.7734-17.496 8.4492-20.293 4.8242-34.906 0.30078-43.598-4.5352-8.7109-14.484-20.09-36.098-24.816l-1.0312-0.22656c-12.742-2.7852-20.844-4.7773-26.594-10.246-10.703-10.211-15.637-29.641-13.188-36.898 6.3477-18.84 16.57-26.664 39.059-29.902l0.35938-0.046875c8.2422-1.1875 17.594-2.5312 26.953-5.9648 18.875-6.9375 28.727-25.117 25.078-46.332-3.3594-19.547-18.254-32.629-38.844-34.117-7.5586-0.55078-15.707 0.42188-23.473 2.7461-7.0078 2.1016-13.141 3.1562-18.215 3.1562-8.3516 0-17.293-1.8125-26.746-23.52-0.26563-0.61328-0.53906-1.1875-0.82813-1.7539l-0.011718-11.102c4.9805-10.934 13.129-19.488 25.367-26.711 24.719-14.594 19.57-41.293 17.879-50.074-1.1992-6.2266-3.2773-11.473-5.1016-16.105-0.625-1.5703-1.2461-3.1562-1.8008-4.7383-3.6602-10.57 0.25391-12.312 4.4023-14.172 27.684-12.371 40.078-33.898 36.84-64.008-0.96094-8.9648 0.22656-19.379 3.2656-28.586 1.1875-3.5898 3.1797-3.5898 4.0312-3.5898 0.58984 0 1.2461 0.097657 1.9336 0.27734 5.8789 1.5352 11.629 2.3164 17.102 2.3164 31.43 0 46.453-24.574 51.395-32.664 6.4688-10.586 14.461-17.09 24.445-19.895 2.8086-0.79297 5.6523-1.1875 8.4492-1.1875 14.566 0 27.707 10.836 32.676 26.965 4.4766 14.508 1.7539 29.316-2.5938 48.648-5.8555 26.09-10.414 64.621 17.438 97.922 13.586 16.234 33.395 25.547 54.359 25.547h1.2031c20.965 0 40.777-9.3125 54.359-25.547 27.863-33.301 23.293-71.832 17.438-97.922-4.3438-19.332-7.0664-34.141-2.5938-48.648 4.9688-16.129 18.109-26.965 32.676-26.965 2.7969 0 5.6406 0.39453 8.4492 1.1875 9.9727 2.8086 17.965 9.3125 24.445 19.895 4.9453 8.0742 19.98 32.652 51.395 32.652 5.4609 0 11.219-0.78125 17.09-2.3164 0.69531-0.17969 1.3438-0.27734 1.9336-0.27734 0.85156 0 2.8555 0 4.0312 3.5898 3.0352 9.2148 4.2344 19.633 3.2656 28.586-3.2383 30.098 9.1562 51.637 36.84 64.008 4.1523 1.8594 8.0625 3.6016 4.4023 14.16-0.55078 1.5859-1.1758 3.1562-1.8008 4.7266-1.8359 4.6328-3.9102 9.8867-5.1133 16.117-1.6914 8.7734-6.8516 35.473 17.879 50.074 12.238 7.2227 20.387 15.781 25.367 26.711v11.133z"/>
 </g>
</svg>
